<?xml version="1.0" encoding="iso-8859-1"?>
<!-- Uploaded to: SVG Repo, www.svgrepo.com, Generator: SVG Repo Mixer Tools -->
<svg version="1.1" id="Layer_1" xmlns="http://www.w3.org/2000/svg" xmlns:xlink="http://www.w3.org/1999/xlink" 
	 viewBox="0 0 512.003 512.003" xml:space="preserve">
<rect y="0.002" style="fill:#3B67AA;" width="512" height="512"/>
<rect y="0.002" style="fill:#0094E2;" width="287.253" height="512"/>
<rect x="62.509" y="0.002" style="fill:#21C25E;" width="449.494" height="449.494"/>
<rect x="62.509" y="0.002" style="fill:#54E68B;" width="224.747" height="449.494"/>
<path style="fill:#FBBA00;" d="M404.962,107.04c-65.008-65.008-170.407-65.008-235.416,0s-65.008,170.407,0,235.416
	s170.407,65.008,235.416,0S469.97,172.048,404.962,107.04z M303.461,240.954c-8.951,8.951-23.463,8.951-32.414,0
	s-8.951-23.463,0-32.414c8.951-8.951,23.463-8.951,32.414,0C312.412,217.491,312.412,232.003,303.461,240.954z"/>
<path style="fill:#F28E00;" d="M404.962,107.04c-32.504-32.504-75.106-48.756-117.708-48.756v143.544
	c5.866,0,11.731,2.238,16.206,6.713c8.951,8.951,8.951,23.463,0,32.414c-4.475,4.475-10.341,6.712-16.206,6.712v143.544
	c42.602,0,85.203-16.252,117.708-48.756C469.97,277.447,469.97,172.048,404.962,107.04z"/>
<path style="fill:#3B67AA;" d="M328.045,183.957c-22.528-22.528-59.053-22.528-81.581,0s-22.528,59.053,0,81.581
	c22.528,22.528,59.053,22.528,81.581,0C350.574,243.01,350.574,206.485,328.045,183.957z M303.461,240.954
	c-8.951,8.951-23.463,8.951-32.414,0s-8.951-23.463,0-32.414c8.951-8.951,23.463-8.951,32.414,0
	C312.412,217.491,312.412,232.003,303.461,240.954z"/>
<g>
	<path style="fill:#FBDB80;" d="M246.463,183.957l-76.917-76.917c-32.504,32.504-48.756,75.106-48.756,117.708h108.777
		C229.567,209.984,235.199,195.221,246.463,183.957z"/>
	<path style="fill:#FBDB80;" d="M344.942,224.748c0,14.763-5.632,29.527-16.896,40.791l76.917,76.917
		c32.504-32.504,48.756-75.106,48.756-117.708L344.942,224.748L344.942,224.748z"/>
</g>
<path style="fill:#0094E2;" d="M287.254,247.666c-5.866,0-11.731-2.237-16.206-6.712c-8.951-8.951-8.951-23.463,0-32.414
	c4.475-4.475,10.341-6.713,16.206-6.713V167.06c-14.763,0-29.527,5.632-40.791,16.896c-22.528,22.528-22.528,59.053,0,81.581
	c11.264,11.264,26.027,16.896,40.791,16.896V247.666z"/>
</svg>